<svg version="1.1" viewBox="0.0 0.0 816.0 236.0" fill="none" stroke="none" stroke-linecap="square" stroke-miterlimit="10" xmlns:xlink="http://www.w3.org/1999/xlink" xmlns="http://www.w3.org/2000/svg"><clipPath id="p.0"><path d="m0 0l816.0 0l0 236.0l-816.0 0l0 -236.0z" clip-rule="nonzero"/></clipPath><g clip-path="url(#p.0)"><path fill="#000000" fill-opacity="0.0" d="m0 0l816.0 0l0 236.0l-816.0 0z" fill-rule="evenodd"/><path fill="#000000" fill-opacity="0.0" d="m-42.787403 -34.440945l901.5748 0l0 240.8819l-901.5748 0z" fill-rule="evenodd"/><path fill="#58878b" d="m36.232494 204.95905q-2.390625 0 -4.203125 -1.796875q-1.7968731 -1.796875 -1.7968731 -4.203125l0 -155.76562q0 -2.640625 1.6875 -4.4375q1.6874981 -1.796875 4.312498 -1.796875l27.125 0q5.515629 0 8.156254 4.5625l56.640625 89.515625l0 -87.84375q0 -2.640625 1.671875 -4.4375q1.6875 -1.796875 4.328125 -1.796875l30.484375 0q2.640625 0 4.3125 1.796875q1.6875 1.796875 1.6875 4.4375l0 155.53125q0 2.640625 -1.6875 4.4375q-1.671875 1.796875 -4.3125 1.796875l-27.125 0q-5.515625 0 -8.15625 -4.5625l-56.390625 -85.921875l0 84.484375q0 2.640625 -1.8125 4.328125q-1.796875 1.671875 -4.4375 1.671875l-30.484379 0zm222.96187 2.40625q-29.281235 0 -46.07811 -15.71875q-16.796875 -15.734375 -17.28125 -45.734375l0 -7.4375q0.96875 -28.5625 17.765625 -44.640625q16.796875 -16.078125 45.35936 -16.078125q20.640625 0 34.921875 8.28125q14.28125 8.28125 21.359375 22.8125q7.078125 14.515625 7.078125 32.984375l0 6.0q0 2.640625 -1.796875 4.453125q-1.796875 1.796875 -4.4375 1.796875l-76.07811 0l0 1.4375q0.234375 10.796875 5.03125 17.40625q4.796875 6.59375 13.687485 6.59375q5.75 0 9.234375 -2.28125q3.484375 -2.28125 6.59375 -5.875q2.171875 -2.40625 3.484375 -3.0q1.328125 -0.609375 4.203125 -0.609375l31.4375 0q2.15625 0 3.71875 1.328125q1.5625 1.3125 1.5625 3.234375q0 6.234375 -7.078125 14.640625q-7.078125 8.40625 -20.640625 14.40625q-13.5625 6.0 -32.046875 6.0zm18.96875 -77.765625l0 -0.484375q0 -11.515625 -5.046875 -17.875q-5.03125 -6.359375 -14.15625 -6.359375q-9.124985 0 -14.04686 6.359375q-4.90625 6.359375 -4.90625 17.875l0 0.484375l38.156235 0zm131.04001 75.359375q-50.890625 0 -50.890625 -47.765625l0 -44.390625l-18.953125 0q-2.40625 0 -4.203125 -1.796875q-1.796875 -1.8125 -1.796875 -4.203125l0 -20.640625q0 -2.640625 1.796875 -4.3125q1.796875 -1.6875 4.203125 -1.6875l18.953125 0l0 -39.60937q0 -2.640625 1.796875 -4.3125q1.8125 -1.6875 4.203125 -1.6875l29.53125 0q2.640625 0 4.3125 1.6875q1.6875 1.671875 1.6875 4.3125l0 39.60937l30.0 0q2.640625 0 4.4375 1.6875q1.796875 1.671875 1.796875 4.3125l0 20.640625q0 2.640625 -1.796875 4.328125q-1.796875 1.671875 -4.4375 1.671875l-30.0 0l0 40.796875q0 8.40625 3.109375 12.734375q3.125 4.3125 10.09375 4.3125l18.953125 0q2.640625 0 4.3125 1.796875q1.6875 1.796875 1.6875 4.4375l0 22.078125q0 2.40625 -1.6875 4.203125q-1.671875 1.796875 -4.3125 1.796875l-22.796875 0z" fill-rule="nonzero"/><path fill="#588b76" d="m478.0725 204.95905q-2.625 0 -4.4375 -1.671875q-1.796875 -1.6875 -1.796875 -4.328125l0 -86.15625l-18.0 0q-2.640625 0 -4.4375 -1.671875q-1.796875 -1.6875 -1.796875 -4.328125l0 -20.640625q0 -2.640625 1.796875 -4.3125q1.796875 -1.6875 4.4375 -1.6875l18.0 0l0 -7.203125q0 -23.999996 13.921875 -34.79687q13.921875 -10.796875 39.84375 -10.796875l18.953125 0q2.640625 0 4.4375 1.6875q1.8125 1.671875 1.8125 4.3125l0 20.640625q0 2.640625 -1.8125 4.328125q-1.796875 1.671875 -4.4375 1.671875l-17.03125 0q-7.6875 0 -10.9375 3.484375q-3.234375 3.4687462 -3.234375 10.671871l0 6.0l28.8125 0q2.640625 0 4.4375 1.6875q1.796875 1.671875 1.796875 4.3125l0 20.640625q0 2.640625 -1.796875 4.328125q-1.796875 1.671875 -4.4375 1.671875l-28.8125 0l0 86.15625q0 2.40625 -1.6875 4.203125q-1.671875 1.796875 -4.3125 1.796875l-29.28125 0zm92.89502 0q-2.40625 0 -4.203125 -1.796875q-1.796875 -1.796875 -1.796875 -4.203125l0 -112.5625q0 -2.640625 1.671875 -4.4375q1.6875 -1.796875 4.328125 -1.796875l29.265625 0q2.640625 0 4.4375 1.796875q1.8125 1.796875 1.8125 4.4375l0 9.125q6.71875 -7.4375 15.71875 -11.390625q9.0 -3.96875 20.03125 -3.96875l10.8125 0q2.640625 0 4.3125 1.6875q1.6875 1.671875 1.6875 4.3125l0 26.15625q0 2.40625 -1.6875 4.203125q-1.671875 1.796875 -4.3125 1.796875l-24.25 0q-9.59375 0 -14.765625 5.28125q-5.15625 5.28125 -5.15625 14.875l0 60.484375q0 2.640625 -1.796875 4.328125q-1.796875 1.671875 -4.4375 1.671875l-31.671875 0zm140.15186 2.40625q-12.71875 0 -23.15625 -4.921875q-10.4375 -4.921875 -16.328125 -13.5625q-5.875 -8.640625 -5.875 -18.96875q0 -16.3125 13.5625 -26.515625q13.5625 -10.203125 37.3125 -14.03125l29.765625 -4.5625l0 -2.890625q0 -8.875 -3.609375 -12.953125q-3.59375 -4.078125 -12.234375 -4.078125q-4.796875 0 -8.046875 1.6875q-3.234375 1.671875 -7.3125 5.03125q-3.125 2.640625 -5.515625 3.84375q-0.96875 1.671875 -2.40625 1.671875l-27.828125 0q-2.40625 0 -3.96875 -1.546875q-1.5625 -1.5625 -1.3125 -3.734375q0.234375 -6.46875 6.46875 -14.515625q6.25 -8.046875 18.96875 -13.796875q12.71875 -5.765625 31.4375 -5.765625q29.765625 0 44.15625 13.078125q14.40625 13.078125 14.40625 35.40625l0 72.71875q0 2.40625 -1.6875 4.203125q-1.671875 1.796875 -4.3125 1.796875l-29.53125 0q-2.390625 0 -4.203125 -1.796875q-1.796875 -1.796875 -1.796875 -4.203125l0 -8.40625q-5.265625 7.453125 -14.640625 12.140625q-9.359375 4.671875 -22.3125 4.671875zm12.0 -28.328125q10.5625 0 17.15625 -6.953125q6.609375 -6.96875 6.609375 -20.171875l0 -2.875l-19.921875 3.359375q-20.15625 3.84375 -20.15625 14.40625q0 5.515625 4.671875 8.875q4.6875 3.359375 11.640625 3.359375z" fill-rule="nonzero"/></g></svg>